<svg xmlns="http://www.w3.org/2000/svg" viewBox="0 0 153.75 121.039"><line fill="none" stroke="#000000" stroke-width="5" stroke-miterlimit="10" x1="77.332" y1="105.486" x2="77.332" y2="118.761"/><g><polygon points="94.694,121.039 59.97,121.039 75.059,116.482 79.616,116.482    "/></g><path fill="none" stroke="#000000" stroke-width="3" stroke-miterlimit="10" d="M152.75,94.35c0,5.891-4.777,10.667-10.668,10.667 h-129.5c-5.892,0-10.667-4.776-10.667-10.667V12.382c0-5.891,4.775-10.667,10.667-10.667h129.5c5.891,0,10.668,4.775,10.668,10.667 V94.35z"/><path fill="#010101" d="M77.332,24.866c-10.823,0-19.594,8.771-19.594,19.594c0,7.181,6.569,14.789,8.961,21.473 c3.569,9.967,3.173,15.934,10.633,15.934c7.57,0,7.062-5.938,10.632-15.892c2.4-6.697,8.962-14.389,8.962-21.514 C96.926,33.637,88.152,24.866,77.332,24.866z M81.949,73.273l-8.832,1.103c-0.315-0.912-0.653-1.979-1.064-3.371 c-0.005-0.018-0.013-0.039-0.017-0.056l11.022-1.378c-0.157,0.525-0.324,1.079-0.47,1.573C82.356,71.944,82.147,72.64,81.949,73.273 z M71.518,69.234c-0.323-1.072-0.688-2.202-1.095-3.399h13.833c-0.219,0.64-0.438,1.28-0.626,1.886L71.518,69.234z M77.332,78.304 c-1.805,0-2.634-0.209-3.557-2.227l7.549-0.946C80.23,78.078,79.433,78.304,77.332,78.304z M85.654,62.272H69.029 c-0.887-1.924-1.952-3.848-3.003-5.73c-2.324-4.159-4.725-8.461-4.725-12.083c0-8.84,7.191-16.031,16.031-16.031 S93.363,35.62,93.363,44.46c0,3.595-2.404,7.919-4.731,12.104C87.592,58.438,86.534,60.359,85.654,62.272z M77.332,33.772 c0.49,0,0.891,0.399,0.891,0.891s-0.399,0.891-0.891,0.891c-4.911,0-8.906,3.996-8.906,8.906c0,0.491-0.399,0.891-0.891,0.891 s-0.891-0.399-0.891-0.891C66.645,38.565,71.438,33.772,77.332,33.772z"/></svg>