<svg xmlns="http://www.w3.org/2000/svg" viewBox="0 0 153.75 121.039"><line fill="none" stroke="#000000" stroke-width="5" stroke-miterlimit="10" x1="77.103" y1="105.486" x2="77.103" y2="118.761"/><polygon points="94.465,121.039 59.741,121.039 74.83,116.482 79.387,116.482"/><path fill="none" stroke="#000000" stroke-width="3" stroke-miterlimit="10" d="M152.521,94.35c0,5.891-4.776,10.667-10.668,10.667 h-129.5c-5.892,0-10.667-4.776-10.667-10.667V12.382c0-5.891,4.775-10.667,10.667-10.667h129.5c5.892,0,10.668,4.775,10.668,10.667 V94.35z"/><path d="M76.051,24.094c-14.864,0-26.957,12.072-26.957,26.904c0,14.837,12.092,26.908,26.957,26.908 c14.865,0,26.854-12.07,26.854-26.908C102.905,36.167,90.916,24.094,76.051,24.094L76.051,24.094z M51.813,50.998 c0-3.504,0.755-6.835,2.1-9.844l11.561,31.618C57.39,68.849,51.813,60.575,51.813,50.998L51.813,50.998z M76.051,75.193 c-2.378,0-4.675-0.35-6.847-0.987l7.271-21.09l7.345,20.371l0.176,0.333C81.479,74.706,78.874,75.193,76.051,75.193z M79.288,39.658 c1.459-0.076,2.772-0.229,2.772-0.229c1.306-0.155,1.152-2.071-0.154-1.995c0,0-3.822,0.308-6.355,0.308 c-2.382,0-6.381-0.308-6.381-0.308c-1.31-0.079-1.463,1.917-0.158,1.995c0,0,1.236,0.153,2.543,0.229l3.777,10.328L70.025,65.86 L61.2,39.658c1.459-0.076,2.775-0.229,2.775-0.229c1.303-0.155,1.151-2.071-0.155-1.995c0,0-3.923,0.308-6.458,0.308 c-0.456,0-0.991-0.012-1.561-0.032c4.333-6.564,11.783-10.901,20.25-10.901c6.309,0,11.952,2.41,16.265,6.351L92,33.142 c-2.379,0-4.067,2.068-4.067,4.294c0,1.994,1.15,3.68,2.377,5.674c0.924,1.611,1.998,3.679,1.998,6.671 c0,2.068-0.799,4.471-1.843,7.817l-2.42,8.063L79.288,39.658L79.288,39.658z M88.133,71.909l7.402-21.361 c1.381-3.453,1.843-6.212,1.843-8.664c0-0.892-0.061-1.717-0.164-2.488c1.892,3.444,2.968,7.397,2.968,11.604 C100.183,59.924,95.338,67.715,88.133,71.909z"/></svg>