<svg xmlns="http://www.w3.org/2000/svg" viewBox="0 0 153.75 121.039"><line fill="none" stroke="#000000" stroke-width="5" stroke-miterlimit="10" x1="74.686" y1="106.57" x2="74.686" y2="119.844"/><polygon points="92.048,122.123 57.324,122.123 72.413,117.566 76.97,117.566   "/><path fill="none" stroke="#000000" stroke-width="3" stroke-miterlimit="10" d="M152.521,94.35c0,5.891-4.776,10.667-10.668,10.667 h-129.5c-5.892,0-10.667-4.776-10.667-10.667V12.382c0-5.891,4.775-10.667,10.667-10.667h129.5c5.892,0,10.668,4.775,10.668,10.667 V94.35z"/><path id="gears_1_" fill="#F78E23" d="M83.516,52.376c0,0-3.929-0.946-4.249-1.023c-0.319-0.076-0.411-0.854-0.411-0.854 c-0.017-0.004-0.029-0.008-0.045-0.012c0.006-0.19,0.029-0.375,0.029-0.567s-0.023-0.376-0.029-0.567 c0.016-0.004,0.027-0.007,0.043-0.011c0.001-0.001,0.093-0.779,0.413-0.854c0.319-0.078,4.249-1.023,4.249-1.023 c0.361-0.087,0.668-0.417,0.656-0.738c-0.03-0.817-0.103-1.225-0.354-2.003c-0.099-0.306-0.5-0.511-0.869-0.469 c0,0-4.016,0.455-4.343,0.492c-0.326,0.038-0.678-0.661-0.678-0.661c-0.012,0.001-0.02,0.001-0.032,0.002 c-0.12-0.363-0.251-0.72-0.393-1.073c0.01-0.007,0.017-0.012,0.027-0.019c0.001,0.001-0.178-0.762,0.096-0.942 c0.273-0.182,3.643-2.415,3.643-2.415c0.31-0.206,0.485-0.622,0.364-0.918c-0.309-0.756-0.516-1.115-1.017-1.761 c-0.198-0.253-0.644-0.309-0.978-0.144c0,0-3.618,1.801-3.913,1.948c-0.293,0.146-0.863-0.391-0.863-0.391 c-0.013,0.006-0.023,0.011-0.036,0.017c-0.235-0.297-0.482-0.583-0.734-0.866c0.009-0.013,0.016-0.022,0.025-0.036 c0.001,0-0.428-0.656-0.232-0.919c0.194-0.265,2.596-3.515,2.596-3.515c0.221-0.299,0.244-0.75,0.029-0.988 c-0.548-0.605-0.866-0.872-1.558-1.307c-0.272-0.17-0.712-0.07-0.967,0.199c0,0-2.785,2.931-3.011,3.169 c-0.225,0.237-0.945-0.071-0.945-0.071c-0.011,0.011-0.02,0.02-0.031,0.031c-0.322-0.2-0.641-0.405-0.976-0.585 c0.002-0.009,0.004-0.015,0.006-0.024c-0.002,0-0.63-0.469-0.535-0.784c0.092-0.315,1.238-4.191,1.238-4.191 c0.105-0.356-0.028-0.788-0.311-0.937c-0.722-0.382-1.112-0.523-1.911-0.696c-0.314-0.068-0.692,0.177-0.841,0.518 c0,0-1.614,3.706-1.746,4.007c-0.13,0.3-0.912,0.257-0.912,0.257c-0.004,0.008-0.006,0.013-0.01,0.021 c-0.369-0.077-0.748-0.122-1.125-0.176c-0.001-0.016-0.002-0.028-0.004-0.045c-0.001,0-0.75-0.226-0.77-0.554 c-0.021-0.328-0.27-4.362-0.27-4.362c-0.023-0.371-0.295-0.73-0.613-0.774c-0.81-0.112-1.224-0.112-2.033,0 c-0.318,0.043-0.59,0.403-0.613,0.774c0,0-0.249,4.035-0.269,4.362c-0.02,0.327-0.77,0.554-0.77,0.554 c-0.001,0.017-0.002,0.029-0.004,0.045c-0.377,0.054-0.756,0.1-1.125,0.176c-0.004-0.007-0.006-0.013-0.01-0.021 c-0.002-0.001-0.784,0.043-0.914-0.257c-0.131-0.301-1.745-4.007-1.745-4.007c-0.149-0.341-0.528-0.586-0.841-0.518 c-0.799,0.172-1.188,0.313-1.911,0.696c-0.284,0.149-0.417,0.58-0.311,0.937c0,0,1.146,3.876,1.239,4.191 c0.093,0.315-0.534,0.784-0.534,0.784c0.002,0.008,0.004,0.015,0.006,0.023c-0.336,0.181-0.655,0.386-0.979,0.586 c-0.011-0.011-0.019-0.019-0.03-0.03c0-0.001-0.719,0.308-0.945,0.07c-0.226-0.238-3.01-3.168-3.01-3.168 c-0.256-0.27-0.696-0.369-0.968-0.199c-0.692,0.435-1.009,0.701-1.557,1.307c-0.216,0.238-0.193,0.688,0.028,0.987 c0,0,2.402,3.251,2.597,3.515c0.195,0.264-0.234,0.919-0.234,0.919c0.01,0.014,0.017,0.023,0.026,0.037 c-0.252,0.282-0.5,0.568-0.735,0.866c-0.013-0.006-0.022-0.01-0.036-0.017c0.001,0-0.569,0.536-0.863,0.39 c-0.294-0.147-3.912-1.948-3.912-1.948c-0.333-0.166-0.781-0.109-0.977,0.144c-0.502,0.645-0.709,1.004-1.017,1.761 c-0.121,0.297,0.054,0.712,0.364,0.918c0,0,3.37,2.233,3.643,2.414c0.273,0.181,0.094,0.943,0.094,0.943 c0.011,0.007,0.018,0.013,0.028,0.02c-0.141,0.352-0.272,0.708-0.392,1.071c-0.012-0.001-0.02-0.002-0.032-0.003 c0.001,0-0.352,0.699-0.679,0.662c-0.326-0.037-4.343-0.493-4.343-0.493c-0.369-0.041-0.771,0.165-0.869,0.47 c-0.251,0.778-0.323,1.186-0.353,2.003c-0.012,0.321,0.294,0.65,0.656,0.737c0,0,3.93,0.946,4.25,1.023 c0.319,0.077,0.411,0.854,0.411,0.854c0.016,0.004,0.028,0.007,0.044,0.012c-0.006,0.19-0.029,0.376-0.029,0.568 c0,0.191,0.023,0.376,0.029,0.566c-0.016,0.004-0.028,0.007-0.044,0.012c0,0-0.092,0.778-0.411,0.855 c-0.319,0.077-4.249,1.022-4.249,1.022c-0.361,0.087-0.668,0.418-0.656,0.739c0.03,0.816,0.102,1.225,0.353,2.002 c0.098,0.306,0.499,0.511,0.869,0.469c0,0,4.017-0.455,4.343-0.492c0.326-0.037,0.679,0.662,0.679,0.662 c0.012-0.001,0.02-0.001,0.031-0.002c0.12,0.363,0.252,0.72,0.393,1.073c-0.01,0.007-0.018,0.012-0.028,0.02 c-0.001-0.002,0.178,0.76-0.095,0.942c-0.274,0.181-3.643,2.414-3.643,2.414c-0.31,0.205-0.485,0.621-0.364,0.918 c0.308,0.757,0.515,1.116,1.017,1.761c0.197,0.253,0.644,0.31,0.977,0.144c0,0,3.619-1.801,3.913-1.947 c0.293-0.147,0.864,0.39,0.864,0.39c0.013-0.006,0.022-0.011,0.035-0.017c0.235,0.297,0.482,0.583,0.733,0.865 c-0.009,0.013-0.016,0.023-0.025,0.037c0,0,0.429,0.655,0.234,0.918c-0.195,0.265-2.597,3.516-2.597,3.516 c-0.221,0.298-0.243,0.749-0.028,0.987c0.548,0.606,0.865,0.873,1.557,1.307c0.272,0.17,0.711,0.07,0.968-0.199 c0,0,2.784-2.93,3.01-3.168c0.226-0.238,0.945,0.071,0.945,0.071c0.012-0.011,0.02-0.02,0.031-0.031 c0.323,0.2,0.642,0.405,0.978,0.585c-0.002,0.008-0.004,0.014-0.006,0.023c0,0,0.628,0.469,0.534,0.783 c-0.093,0.316-1.239,4.191-1.239,4.191c-0.105,0.356,0.028,0.788,0.312,0.938c0.722,0.382,1.112,0.523,1.911,0.695 c0.313,0.068,0.692-0.177,0.841-0.518c0,0,1.614-3.706,1.745-4.007c0.131-0.3,0.913-0.256,0.913-0.256 c0.003-0.008,0.006-0.013,0.009-0.021c0.37,0.077,0.75,0.122,1.126,0.176c0.001,0.017,0.002,0.029,0.004,0.045 c-0.001-0.001,0.749,0.225,0.769,0.553c0.021,0.329,0.27,4.363,0.27,4.363c0.023,0.371,0.295,0.73,0.613,0.774 c0.809,0.112,1.224,0.112,2.033,0c0.318-0.044,0.59-0.403,0.613-0.774c0,0,0.249-4.035,0.27-4.362 c0.02-0.327,0.77-0.553,0.77-0.553c0.001-0.018,0.002-0.03,0.004-0.046c0.376-0.054,0.756-0.1,1.125-0.176 c0.003,0.008,0.006,0.013,0.009,0.021c0-0.001,0.783-0.045,0.913,0.256c0.131,0.301,1.746,4.007,1.746,4.007 c0.148,0.34,0.527,0.585,0.841,0.518c0.799-0.172,1.188-0.313,1.911-0.695c0.283-0.15,0.416-0.581,0.311-0.938 c0,0-1.146-3.876-1.239-4.191c-0.093-0.314,0.534-0.783,0.534-0.783c-0.002-0.009-0.004-0.015-0.006-0.023 c0.336-0.181,0.656-0.386,0.979-0.587c0.011,0.011,0.019,0.019,0.03,0.03c-0.001,0.001,0.719-0.307,0.945-0.069 c0.226,0.237,3.01,3.167,3.01,3.167c0.256,0.269,0.696,0.369,0.968,0.199c0.691-0.435,1.009-0.7,1.558-1.307 c0.215-0.238,0.192-0.688-0.029-0.987c0,0-2.402-3.251-2.598-3.516c-0.194-0.263,0.234-0.918,0.234-0.918 c-0.01-0.014-0.017-0.023-0.025-0.037c0.252-0.283,0.5-0.569,0.734-0.867c0.013,0.006,0.022,0.01,0.035,0.016 c-0.001,0.001,0.571-0.535,0.864-0.388c0.294,0.146,3.913,1.947,3.913,1.947c0.333,0.166,0.78,0.109,0.978-0.144 c0.501-0.645,0.708-1.004,1.017-1.761c0.12-0.298-0.055-0.712-0.365-0.918c0,0-3.369-2.233-3.643-2.414 c-0.273-0.181-0.095-0.944-0.095-0.944c-0.01-0.007-0.018-0.013-0.028-0.02c0.141-0.352,0.272-0.708,0.392-1.071 c0.012,0.001,0.021,0.002,0.032,0.003c0,0,0.352-0.698,0.679-0.661c0.327,0.036,4.343,0.491,4.343,0.491 c0.369,0.042,0.771-0.163,0.869-0.469c0.25-0.778,0.323-1.186,0.354-2.002C84.185,52.794,83.878,52.463,83.516,52.376z M60.203,63.435c-7.465,0-13.517-6.051-13.517-13.516c0-7.464,6.053-13.515,13.517-13.515c7.465,0,13.517,6.051,13.517,13.515 C73.72,57.384,67.668,63.435,60.203,63.435z"/><circle id="circle_1_" fill="#F78E23" cx="60.203" cy="49.92" r="3.782"/><path id="gears" fill="#261811" d="M108.251,56.914c0,0-0.494-0.198-0.828-0.333c-0.333-0.134-0.23-0.934-0.23-0.934l-0.013-0.005 c0.125-0.995,0.113-1.987-0.029-2.957l0.012-0.005c0,0-0.119-0.798,0.212-0.938c0.33-0.142,0.82-0.35,0.82-0.35 c0.374-0.161,0.549-0.593,0.39-0.968l-1.019-2.387c-0.159-0.375-0.593-0.549-0.967-0.39c0,0-0.49,0.209-0.82,0.35 c-0.332,0.141-0.824-0.498-0.824-0.498l-0.012,0.005c-0.601-0.774-1.309-1.469-2.113-2.068l0.005-0.013 c0,0-0.647-0.479-0.514-0.813c0.134-0.333,0.333-0.828,0.333-0.828c0.152-0.378-0.031-0.808-0.409-0.959l-2.408-0.968 c-0.378-0.152-0.808,0.031-0.959,0.409c0,0-0.199,0.494-0.333,0.827s-0.935,0.23-0.935,0.23l-0.005,0.013 c-0.995-0.125-1.987-0.113-2.956,0.029l-0.005-0.012c0,0-0.797,0.12-0.938-0.211c-0.141-0.33-0.35-0.82-0.35-0.82 c-0.16-0.375-0.593-0.549-0.968-0.39L90,42.95c-0.375,0.159-0.549,0.593-0.39,0.968c0,0,0.209,0.489,0.35,0.82 c0.141,0.33-0.498,0.824-0.498,0.824l0.005,0.012c-0.773,0.6-1.468,1.308-2.067,2.112l-0.012-0.005 c0,0.001-0.481,0.649-0.814,0.515s-0.827-0.333-0.827-0.333c-0.378-0.152-0.808,0.031-0.96,0.409l-0.968,2.407 c-0.152,0.378,0.032,0.808,0.409,0.96c0,0,0.494,0.199,0.827,0.333c0.334,0.134,0.23,0.935,0.23,0.935l0.013,0.005 c-0.125,0.995-0.113,1.987,0.029,2.956l-0.012,0.005c0,0,0.12,0.798-0.211,0.939s-0.82,0.35-0.82,0.35 c-0.375,0.159-0.549,0.593-0.39,0.968l1.018,2.387c0.16,0.375,0.593,0.549,0.968,0.389c0,0,0.49-0.208,0.821-0.35 c0.331-0.141,0.823,0.498,0.823,0.498l0.012-0.005c0.601,0.773,1.308,1.468,2.112,2.067l-0.005,0.013 c0.001,0,0.649,0.48,0.515,0.814s-0.333,0.828-0.333,0.828c-0.151,0.377,0.031,0.807,0.409,0.959l2.407,0.969 c0.378,0.152,0.808-0.032,0.96-0.409c0,0,0.199-0.494,0.333-0.827c0.135-0.334,0.935-0.231,0.935-0.231l0.005-0.013 c0.995,0.125,1.987,0.113,2.956-0.029l0.005,0.012c0,0,0.798-0.12,0.939,0.21c0.141,0.331,0.35,0.821,0.35,0.821 c0.159,0.375,0.593,0.549,0.968,0.389l2.387-1.017c0.375-0.16,0.549-0.593,0.39-0.968c0,0-0.209-0.49-0.35-0.82 c-0.142-0.331,0.497-0.824,0.497-0.824l-0.005-0.012c0.773-0.601,1.47-1.309,2.068-2.113l0.013,0.005 c0,0.001,0.48-0.647,0.813-0.514s0.827,0.333,0.827,0.333c0.379,0.152,0.808-0.031,0.96-0.409l0.968-2.407 C108.812,57.496,108.629,57.067,108.251,56.914z M94.078,59.65c-2.968-1.194-4.406-4.567-3.212-7.535 c1.194-2.968,4.567-4.406,7.535-3.212c2.968,1.194,4.405,4.567,3.212,7.535C100.418,59.406,97.046,60.844,94.078,59.65z"/><circle id="circle" fill="#261811" cx="96.238" cy="54.276" r="1.84"/></svg>