<?xml version="1.0" encoding="utf-8"?>
<!-- Generator: Adobe Illustrator 16.0.0, SVG Export Plug-In . SVG Version: 6.00 Build 0)  -->
<!DOCTYPE svg PUBLIC "-//W3C//DTD SVG 1.1//EN" "http://www.w3.org/Graphics/SVG/1.1/DTD/svg11.dtd">
<svg version="1.1" xmlns="http://www.w3.org/2000/svg" xmlns:xlink="http://www.w3.org/1999/xlink" x="0px" y="0px" width="800px"
	 height="600px" viewBox="0 0 800 600" enable-background="new 0 0 800 600" xml:space="preserve">
<g id="Layer_2" display="none">
	<rect x="117.75" y="140.708" display="inline" fill="#E67500" width="546.75" height="312.392"/>
</g>
<g id="Layer_1">
	<g display="none">
		<path display="inline" fill="#140D05" d="M322.717,354.755v11.06c0,0.813,0.019,1.739,0.076,2.363h-1.494l-0.076-1.588h-0.038
			c-0.511,1.021-1.626,1.796-3.12,1.796c-2.212,0-3.914-1.872-3.914-4.65c-0.019-3.044,1.872-4.916,4.103-4.916
			c1.399,0,2.344,0.662,2.76,1.399h0.038v-5.464H322.717z M321.053,362.752c0-0.208-0.019-0.491-0.076-0.699
			c-0.246-1.06-1.153-1.929-2.401-1.929c-1.721,0-2.742,1.513-2.742,3.535c0,1.853,0.908,3.384,2.704,3.384
			c1.115,0,2.136-0.737,2.439-1.984c0.057-0.228,0.076-0.454,0.076-0.719V362.752z"/>
		<path display="inline" fill="#140D05" d="M327.118,363.225h0.038c0.227-0.321,0.548-0.719,0.813-1.04l2.685-3.157h2.004
			l-3.536,3.763l4.027,5.388h-2.023l-3.157-4.386l-0.851,0.945v3.44h-1.645v-13.423h1.645V363.225z"/>
		<path display="inline" fill="#AC6300" d="M339.743,368.178l-0.132-1.153h-0.057c-0.51,0.719-1.494,1.361-2.798,1.361
			c-1.853,0-2.798-1.305-2.798-2.628c0-2.212,1.966-3.422,5.501-3.403v-0.188c0-0.757-0.208-2.118-2.08-2.118
			c-0.851,0-1.739,0.265-2.382,0.681l-0.378-1.096c0.756-0.492,1.853-0.813,3.006-0.813c2.798,0,3.479,1.909,3.479,3.743v3.422
			c0,0.794,0.038,1.569,0.151,2.193H339.743z M339.497,363.508c-1.815-0.037-3.876,0.284-3.876,2.061
			c0,1.078,0.719,1.589,1.569,1.589c1.191,0,1.947-0.757,2.212-1.532c0.057-0.17,0.095-0.358,0.095-0.529V363.508z"/>
		<path display="inline" fill="#AC6300" d="M343.785,361.504c0-0.945-0.019-1.721-0.075-2.477h1.475l0.094,1.513h0.038
			c0.454-0.87,1.512-1.721,3.025-1.721c1.267,0,3.233,0.756,3.233,3.895v5.464h-1.664v-5.274c0-1.475-0.548-2.704-2.117-2.704
			c-1.097,0-1.947,0.775-2.231,1.702c-0.076,0.208-0.113,0.491-0.113,0.774v5.502h-1.664V361.504z"/>
		<path display="inline" fill="#AC6300" d="M362.176,354.755v11.06c0,0.813,0.019,1.739,0.076,2.363h-1.494l-0.076-1.588h-0.038
			c-0.511,1.021-1.626,1.796-3.12,1.796c-2.212,0-3.914-1.872-3.914-4.65c-0.019-3.044,1.872-4.916,4.103-4.916
			c1.399,0,2.344,0.662,2.76,1.399h0.038v-5.464H362.176z M360.513,362.752c0-0.208-0.019-0.491-0.076-0.699
			c-0.246-1.06-1.153-1.929-2.401-1.929c-1.72,0-2.741,1.513-2.741,3.535c0,1.853,0.908,3.384,2.704,3.384
			c1.115,0,2.136-0.737,2.439-1.984c0.057-0.228,0.076-0.454,0.076-0.719V362.752z"/>
		<path display="inline" fill="#AC6300" d="M365.859,363.905c0.038,2.25,1.475,3.176,3.138,3.176c1.191,0,1.91-0.208,2.533-0.473
			l0.284,1.191c-0.586,0.265-1.588,0.567-3.044,0.567c-2.817,0-4.5-1.854-4.5-4.613c0-2.761,1.626-4.935,4.292-4.935
			c2.987,0,3.781,2.628,3.781,4.311c0,0.341-0.038,0.605-0.057,0.775H365.859z M370.736,362.714
			c0.019-1.059-0.435-2.703-2.307-2.703c-1.683,0-2.42,1.55-2.552,2.703H370.736z"/>
		<path display="inline" fill="#AC6300" d="M374.4,361.882c0-1.077-0.019-2.004-0.075-2.854h1.456l0.057,1.796h0.076
			c0.416-1.229,1.418-2.004,2.533-2.004c0.189,0,0.322,0.019,0.473,0.057v1.569c-0.17-0.038-0.34-0.057-0.567-0.057
			c-1.172,0-2.004,0.889-2.231,2.137c-0.038,0.227-0.076,0.491-0.076,0.774v4.878H374.4V361.882z"/>
		<path display="inline" fill="#AC6300" d="M380.354,366.477c0.492,0.321,1.361,0.661,2.193,0.661c1.21,0,1.777-0.604,1.777-1.361
			c0-0.794-0.473-1.229-1.702-1.683c-1.645-0.586-2.42-1.493-2.42-2.59c0-1.475,1.191-2.685,3.157-2.685
			c0.926,0,1.739,0.265,2.25,0.567l-0.416,1.21c-0.359-0.227-1.021-0.529-1.872-0.529c-0.983,0-1.532,0.567-1.532,1.248
			c0,0.756,0.548,1.096,1.74,1.55c1.588,0.605,2.401,1.399,2.401,2.76c0,1.607-1.248,2.742-3.422,2.742
			c-1.002,0-1.929-0.246-2.571-0.624L380.354,366.477z"/>
		<path display="inline" fill="#AC6300" d="M396.345,363.527c0,3.384-2.344,4.858-4.556,4.858c-2.477,0-4.386-1.815-4.386-4.708
			c0-3.062,2.004-4.858,4.538-4.858C394.568,358.819,396.345,360.729,396.345,363.527z M389.085,363.621
			c0,2.004,1.153,3.517,2.779,3.517c1.588,0,2.779-1.493,2.779-3.554c0-1.551-0.775-3.517-2.742-3.517
			C389.936,360.067,389.085,361.882,389.085,363.621z"/>
		<path display="inline" fill="#AC6300" d="M398.439,361.504c0-0.945-0.019-1.721-0.075-2.477h1.475l0.094,1.513h0.038
			c0.454-0.87,1.512-1.721,3.025-1.721c1.267,0,3.232,0.756,3.232,3.895v5.464h-1.664v-5.274c0-1.475-0.547-2.704-2.117-2.704
			c-1.096,0-1.947,0.775-2.23,1.702c-0.076,0.208-0.113,0.491-0.113,0.774v5.502h-1.664V361.504z"/>
		<path display="inline" fill="#140D05" d="M420.838,354.755v11.06c0,0.813,0.019,1.739,0.075,2.363h-1.493l-0.076-1.588h-0.037
			c-0.512,1.021-1.627,1.796-3.12,1.796c-2.212,0-3.913-1.872-3.913-4.65c-0.02-3.044,1.871-4.916,4.102-4.916
			c1.399,0,2.345,0.662,2.761,1.399h0.038v-5.464H420.838z M419.174,362.752c0-0.208-0.02-0.491-0.076-0.699
			c-0.246-1.06-1.152-1.929-2.4-1.929c-1.721,0-2.742,1.513-2.742,3.535c0,1.853,0.908,3.384,2.704,3.384
			c1.115,0,2.136-0.737,2.438-1.984c0.057-0.228,0.076-0.454,0.076-0.719V362.752z"/>
		<path display="inline" fill="#140D05" d="M424.52,363.905c0.038,2.25,1.475,3.176,3.139,3.176c1.191,0,1.91-0.208,2.533-0.473
			l0.283,1.191c-0.586,0.265-1.588,0.567-3.043,0.567c-2.817,0-4.5-1.854-4.5-4.613c0-2.761,1.626-4.935,4.291-4.935
			c2.988,0,3.781,2.628,3.781,4.311c0,0.341-0.037,0.605-0.057,0.775H424.52z M429.397,362.714c0.019-1.059-0.435-2.703-2.307-2.703
			c-1.683,0-2.42,1.55-2.552,2.703H429.397z"/>
		<path display="inline" fill="#140D05" d="M432.835,366.477c0.491,0.321,1.361,0.661,2.192,0.661c1.211,0,1.777-0.604,1.777-1.361
			c0-0.794-0.473-1.229-1.701-1.683c-1.645-0.586-2.42-1.493-2.42-2.59c0-1.475,1.191-2.685,3.157-2.685
			c0.927,0,1.739,0.265,2.25,0.567l-0.416,1.21c-0.359-0.227-1.021-0.529-1.872-0.529c-0.982,0-1.531,0.567-1.531,1.248
			c0,0.756,0.549,1.096,1.74,1.55c1.588,0.605,2.4,1.399,2.4,2.76c0,1.607-1.248,2.742-3.422,2.742
			c-1.002,0-1.929-0.246-2.571-0.624L432.835,366.477z"/>
		<path display="inline" fill="#140D05" d="M442.398,356.456c0.02,0.567-0.396,1.021-1.059,1.021c-0.586,0-1.002-0.454-1.002-1.021
			c0-0.586,0.435-1.04,1.039-1.04C442.002,355.416,442.398,355.87,442.398,356.456z M440.545,368.178v-9.15h1.664v9.15H440.545z"/>
		<path display="inline" fill="#140D05" d="M452.852,359.027c-0.037,0.662-0.076,1.399-0.076,2.515v5.312
			c0,2.099-0.416,3.384-1.304,4.178c-0.889,0.832-2.175,1.097-3.327,1.097c-1.097,0-2.307-0.265-3.045-0.756l0.416-1.267
			c0.605,0.378,1.551,0.718,2.686,0.718c1.701,0,2.949-0.889,2.949-3.194v-1.021h-0.038c-0.511,0.851-1.493,1.531-2.911,1.531
			c-2.27,0-3.895-1.928-3.895-4.462c0-3.1,2.022-4.858,4.121-4.858c1.588,0,2.457,0.832,2.855,1.588h0.037l0.076-1.38H452.852z
			 M451.131,362.639c0-0.284-0.019-0.529-0.094-0.757c-0.303-0.964-1.115-1.758-2.326-1.758c-1.588,0-2.723,1.342-2.723,3.46
			c0,1.796,0.908,3.289,2.704,3.289c1.021,0,1.947-0.643,2.307-1.701c0.095-0.284,0.132-0.605,0.132-0.889V362.639z"/>
		<path display="inline" fill="#140D05" d="M455.418,361.504c0-0.945-0.018-1.721-0.074-2.477h1.475l0.094,1.513h0.038
			c0.454-0.87,1.513-1.721,3.024-1.721c1.268,0,3.233,0.756,3.233,3.895v5.464h-1.664v-5.274c0-1.475-0.548-2.704-2.117-2.704
			c-1.097,0-1.947,0.775-2.231,1.702c-0.075,0.208-0.113,0.491-0.113,0.774v5.502h-1.664V361.504z"/>
		<path display="inline" fill="#140D05" d="M465.681,366.477c0.491,0.321,1.361,0.661,2.192,0.661c1.211,0,1.777-0.604,1.777-1.361
			c0-0.794-0.473-1.229-1.701-1.683c-1.645-0.586-2.42-1.493-2.42-2.59c0-1.475,1.191-2.685,3.157-2.685
			c0.927,0,1.739,0.265,2.25,0.567l-0.416,1.21c-0.359-0.227-1.021-0.529-1.872-0.529c-0.982,0-1.531,0.567-1.531,1.248
			c0,0.756,0.549,1.096,1.74,1.55c1.588,0.605,2.4,1.399,2.4,2.76c0,1.607-1.248,2.742-3.422,2.742
			c-1.002,0-1.929-0.246-2.571-0.624L465.681,366.477z"/>
	</g>
	<g>
		<path fill="#FFFFFF" d="M388.641,383.443c-54.175,0-98.25-44.075-98.25-98.25c0-54.175,44.075-98.25,98.25-98.25
			s98.25,44.075,98.25,98.25C486.891,339.368,442.815,383.443,388.641,383.443z M388.641,191.943
			c-51.418,0-93.25,41.832-93.25,93.25c0,51.418,41.832,93.25,93.25,93.25s93.25-41.832,93.25-93.25
			C481.891,233.775,440.059,191.943,388.641,191.943z"/>
	</g>
	<g>
		<path fill="#FFFFFF" d="M416.438,311.748c-1.462,4.485-3.705,8.312-6.725,11.479c-3.024,3.168-6.898,5.605-11.626,7.311
			c-4.729,1.706-10.453,2.559-17.18,2.559c-6.432,0-11.893-0.853-16.375-2.559c-4.484-1.705-8.188-4.143-11.112-7.311
			c-2.924-3.166-5.117-6.993-6.579-11.479c-1.462-4.481-2.291-9.551-2.485-15.205c0.194-5.652,1.023-10.77,2.485-15.353
			c1.462-4.58,3.655-8.503,6.579-11.771c2.925-3.264,6.628-5.798,11.112-7.602c4.482-1.804,9.943-2.706,16.375-2.706
			c4.388,0,8.262,0.512,11.626,1.536c3.361,1.022,6.455,2.218,9.283,3.581l-0.708-40.938h17.814c0,5.557,0,11.211,0,16.961
			c0,5.752,0,11.308,0,16.667c0,5.362,0,10.432,0,15.206c0,4.679,0,8.823,0,12.429c0,3.607,0,6.483,0,8.627c0,2.145,0,3.267,0,3.362
			C418.728,302.197,417.9,307.267,416.438,311.748z M400.647,281.702c-0.976-3.363-2.364-6.091-4.166-8.188
			c-1.805-2.096-3.975-3.605-6.507-4.533c-2.536-0.925-5.314-1.339-8.335-1.243c-3.022-0.096-5.8,0.293-8.334,1.17
			c-2.535,0.878-4.703,2.365-6.507,4.46c-1.805,2.097-3.193,4.851-4.166,8.261c-0.976,3.413-1.462,7.556-1.462,12.428v5.117
			c0,4.876,0.486,8.97,1.462,12.282c0.973,3.315,2.361,5.947,4.166,7.896c1.804,1.951,3.972,3.315,6.507,4.095
			c2.534,0.78,5.312,1.121,8.334,1.022c3.021,0.099,5.799-0.267,8.335-1.096c2.532-0.828,4.702-2.217,6.507-4.168
			c1.802-1.948,3.19-4.556,4.166-7.822c0.974-3.264,1.462-7.333,1.462-12.209v-5.117
			C402.109,289.185,401.621,285.064,400.647,281.702z"/>
	</g>
	<g display="none">
		<g display="inline">
			<path fill="#FFFFFF" d="M216.495,211.304c-12.787,0-23.191-10.404-23.191-23.191c0-12.788,10.404-23.191,23.191-23.191
				c12.788,0,23.191,10.403,23.191,23.191C239.686,200.9,229.283,211.304,216.495,211.304z M216.495,166.103
				c-12.137,0-22.011,9.874-22.011,22.011s9.874,22.011,22.011,22.011s22.011-9.874,22.011-22.011S228.632,166.103,216.495,166.103z
				"/>
		</g>
		<g display="inline">
			<path fill="#FFFFFF" d="M223.312,195.034c-0.345,1.059-0.875,1.962-1.587,2.709c-0.714,0.748-1.628,1.323-2.744,1.726
				c-1.116,0.402-2.468,0.604-4.055,0.604c-1.518,0-2.807-0.201-3.865-0.604c-1.059-0.403-1.933-0.978-2.623-1.726
				c-0.69-0.747-1.208-1.65-1.553-2.709c-0.345-1.058-0.541-2.254-0.587-3.589c0.046-1.334,0.242-2.542,0.587-3.624
				c0.345-1.082,0.863-2.007,1.553-2.778c0.69-0.771,1.564-1.369,2.623-1.794c1.058-0.426,2.347-0.639,3.865-0.639
				c1.036,0,1.95,0.121,2.744,0.363c0.793,0.241,1.524,0.523,2.191,0.845l0.069-9.663h3.969c0,1.312,0,2.646,0,4.003
				s0,2.669,0,3.934c0,1.266,0,2.462,0,3.589c0,1.104,0,2.083,0,2.934c0,0.852,0,1.531,0,2.037c0,0.506,0,0.771,0,0.793
				C223.853,192.779,223.657,193.976,223.312,195.034z M219.585,187.941c-0.23-0.794-0.558-1.438-0.983-1.933
				c-0.426-0.495-0.938-0.851-1.536-1.07c-0.599-0.218-1.254-0.316-1.968-0.293c-0.713-0.022-1.369,0.069-1.967,0.276
				c-0.598,0.208-1.11,0.559-1.536,1.053c-0.426,0.495-0.753,1.145-0.983,1.95c-0.23,0.806-0.345,1.784-0.345,2.934v1.208
				c0,1.151,0.115,2.117,0.345,2.899c0.23,0.783,0.558,1.404,0.983,1.864c0.426,0.46,0.938,0.783,1.536,0.967
				c0.599,0.184,1.254,0.265,1.967,0.241c0.713,0.023,1.369-0.063,1.968-0.258c0.598-0.196,1.11-0.523,1.536-0.984
				c0.425-0.46,0.753-1.076,0.983-1.847c0.23-0.771,0.345-1.731,0.345-2.882v-1.208C219.93,189.708,219.815,188.735,219.585,187.941
				z"/>
		</g>
	</g>
</g>
</svg>
