<?xml version="1.0" encoding="utf-8"?>
<!-- Generator: Adobe Illustrator 16.0.0, SVG Export Plug-In . SVG Version: 6.00 Build 0)  -->
<!DOCTYPE svg PUBLIC "-//W3C//DTD SVG 1.1//EN" "http://www.w3.org/Graphics/SVG/1.1/DTD/svg11.dtd">
<svg version="1.1" id="Layer_1" xmlns="http://www.w3.org/2000/svg" xmlns:xlink="http://www.w3.org/1999/xlink" x="0px" y="0px"
	 width="191.328px" height="191.328px" viewBox="0 0 191.328 191.328" enable-background="new 0 0 191.328 191.328"
	 xml:space="preserve">
<g>
	<path fill="#FFFFFF" d="M95.664,191.328C42.915,191.328,0,148.413,0,95.664S42.915,0,95.664,0
		c52.749,0,95.664,42.915,95.664,95.664S148.413,191.328,95.664,191.328z M95.664,8.142c-48.26,0-87.522,39.262-87.522,87.522
		s39.262,87.522,87.522,87.522s87.521-39.263,87.521-87.522S143.923,8.142,95.664,8.142z"/>
</g>
<g>
	<path fill="#FFFFFF" d="M123.461,122.218c-1.462,4.485-3.705,8.312-6.725,11.479c-3.024,3.168-6.898,5.605-11.626,7.311
		c-4.729,1.706-10.453,2.559-17.18,2.559c-6.432,0-11.893-0.853-16.375-2.559c-4.484-1.705-8.188-4.143-11.112-7.311
		c-2.924-3.166-5.117-6.993-6.579-11.479c-1.462-4.481-2.291-9.551-2.485-15.205c0.194-5.652,1.023-10.77,2.485-15.353
		c1.462-4.58,3.655-8.503,6.579-11.771c2.925-3.264,6.628-5.798,11.112-7.602c4.482-1.804,9.943-2.706,16.375-2.706
		c4.388,0,8.262,0.512,11.626,1.536c3.361,1.022,6.455,2.218,9.283,3.581l-0.708-40.938h17.814c0,5.557,0,11.211,0,16.961
		c0,5.752,0,11.308,0,16.667c0,5.362,0,10.432,0,15.206c0,4.679,0,8.823,0,12.429c0,3.607,0,6.483,0,8.627c0,2.145,0,3.267,0,3.362
		C125.75,112.667,124.923,117.737,123.461,122.218z M107.67,92.172c-0.976-3.363-2.364-6.091-4.166-8.188
		c-1.805-2.096-3.975-3.605-6.507-4.533c-2.536-0.925-5.314-1.339-8.335-1.243c-3.022-0.096-5.8,0.293-8.334,1.17
		c-2.535,0.878-4.703,2.365-6.507,4.46c-1.805,2.097-3.193,4.851-4.166,8.261c-0.976,3.413-1.462,7.556-1.462,12.428v5.117
		c0,4.876,0.486,8.97,1.462,12.282c0.973,3.315,2.361,5.947,4.166,7.896c1.804,1.951,3.972,3.315,6.507,4.095
		c2.534,0.78,5.312,1.121,8.334,1.022c3.021,0.099,5.799-0.267,8.335-1.096c2.532-0.828,4.702-2.217,6.507-4.168
		c1.802-1.948,3.19-4.556,4.166-7.822c0.974-3.264,1.462-7.333,1.462-12.209v-5.117C109.132,99.655,108.644,95.535,107.67,92.172z"
		/>
</g>
</svg>
